<svg xmlns="http://www.w3.org/2000/svg" width="150pt" height="150pt" viewBox="0 0 150 150" version="1.1" class="iconadda">
<g id="animate_0" transform="rotate(0,75,75) translate(69,69) scale(0.08,0.08)">
<g id="animate_1" style="transform-origin: 76.7826px 74.9984px;"><path style="stroke: none; fill-rule: nonzero; fill-opacity: 1;" d="M 55.578125 74.164062 C 50.835938 67.300781 48.015625 59.019531 47.433594 58.3125 C 54.378906 53.46875 67.964844 47.382812 68.726562 38.652344 C 69.691406 27.371094 50.578125 3.785156 46.914062 3.570312 C 36.886719 3.679688 18.53125 20.648438 16.355469 25.777344 C 12.3125 36.382812 14.316406 46.25 21.265625 60.535156 C 30.117188 81.785156 62.988281 122.097656 81.789062 134.75 C 94.230469 144.300781 103.320312 148.050781 114.175781 145.785156 C 119.222656 144.828125 137.445312 129.875 139.273438 119.765625 C 139.71875 116.015625 118.535156 91.15625 107.578125 90.167969 C 99.070312 89.382812 90.914062 102.117188 85.066406 108.34375 C 84.484375 107.601562 79.5 103.710938 74.148438 97.554688 C 67.1875 90.234375 60.714844 81.640625 55.578125 74.164062 Z M 55.578125 74.164062 " id="animate_2" data-original="#000001" fill="#000001"></path>
</g></g>
</svg>